<svg width="799" height="659" viewBox="0 0 799 659" fill="none" xmlns="http://www.w3.org/2000/svg">
<path fill-rule="evenodd" clip-rule="evenodd" d="M716.99 -463.815C761.653 -379.637 731.299 -282.655 750.138 -188.677C778.559 -46.8986 922.864 85.9374 853.103 215.186C781.251 348.309 596.727 364.604 447.215 372.559C294.04 380.709 127.863 368.248 22.7632 259.363C-80.0305 152.867 -83.5237 -11.8383 -68.2048 -161.426C-54.7318 -292.989 16.2435 -403.574 101.205 -506.61C196.399 -622.056 291.51 -786.188 438.533 -775.97C584.627 -765.817 648.895 -592.156 716.99 -463.815Z" fill="url(#paint0_linear_25_39)"/>
<g clip-path="url(#clip0_25_39)">
<path d="M619 324.5C619.075 375.605 600.998 425.077 567.991 464.094C566.793 465.517 565.572 466.918 564.328 468.311C549.694 484.77 532.647 498.912 513.769 510.255C509.439 512.855 505.014 515.305 500.494 517.604C500.037 517.837 499.573 518.069 499.116 518.294C498.569 518.571 498.015 518.841 497.46 519.11C486.023 524.708 474.11 529.276 461.861 532.759C460.588 533.119 459.312 533.469 458.033 533.808C441.921 538.071 425.37 540.457 408.71 540.918C407.841 540.94 406.987 540.955 406.163 540.97C405.871 540.978 405.586 540.985 405.302 540.985C404.365 540.992 403.436 541 402.5 541C384.943 541.013 367.45 538.892 350.405 534.685C348.697 534.265 346.997 533.823 345.304 533.359C336.386 530.924 327.635 527.914 319.106 524.347C314.612 522.474 310.197 520.454 305.862 518.286C304.88 517.792 303.899 517.297 302.933 516.788C302.52 516.586 302.116 516.368 301.711 516.159C278.607 503.964 257.887 487.708 240.545 468.169C239.346 466.828 238.17 465.465 237.009 464.094C217.9 441.438 203.647 415.1 195.131 386.712C186.615 358.324 184.017 328.489 187.5 299.057C190.983 269.624 200.471 241.219 215.377 215.603C230.283 189.986 250.29 167.702 274.158 150.131C275.387 149.225 276.623 148.326 277.874 147.449C278.121 147.277 278.368 147.105 278.616 146.933C300.598 131.535 325.27 120.393 351.357 114.083C352.84 113.716 354.323 113.371 355.821 113.049C384.077 106.869 413.278 106.357 441.732 111.543C443.223 111.821 444.714 112.105 446.197 112.412C472.05 117.715 496.707 127.728 518.938 141.951C519.433 142.265 519.927 142.58 520.421 142.91C521.418 143.554 522.414 144.213 523.395 144.88C552.845 164.678 576.969 191.419 593.642 222.744C610.315 254.068 619.024 289.014 619 324.5Z" fill="#F2F2F2"/>
<path d="M347.813 436.503L278.616 442.646L277.874 442.713V147.449C278.121 147.277 278.368 147.105 278.616 146.932C293.037 136.845 308.637 128.558 325.07 122.256L328.605 171.025L328.928 175.49L332.426 223.854L333.505 238.731L347.686 434.78L347.813 436.503Z" fill="#CCCCCC"/>
<path d="M518.938 141.951C519.432 142.265 519.927 142.58 520.421 142.91V442.713L518.938 442.579L450.49 436.503L450.617 434.78L464.798 238.731L465.877 223.854L469.375 175.49L469.697 171.025L473.406 119.881C489.397 125.424 504.68 132.832 518.938 141.951Z" fill="#CCCCCC"/>
<path d="M518.938 141.951V446.804C518.938 452.655 514.908 457.412 509.948 457.412H287.605C283.5 457.412 280.016 454.145 278.96 449.688C278.73 448.744 278.614 447.776 278.616 446.804V146.933C278.368 147.105 278.121 147.277 277.874 147.449C276.623 148.326 275.387 149.225 274.158 150.131V446.804C274.092 451.248 275.751 455.544 278.788 458.79C280.38 460.458 282.394 461.664 284.616 462.281C285.59 462.546 286.596 462.679 287.605 462.678H509.948C510.96 462.679 511.968 462.545 512.945 462.281C518.923 460.67 523.395 454.348 523.395 446.804V144.88C522.414 144.213 521.418 143.554 520.421 142.91C519.927 142.58 519.432 142.265 518.938 141.951Z" fill="#CCCCCC"/>
<path d="M521.168 171.028H276.387V175.492H521.168V171.028Z" fill="#CCCCCC"/>
<path d="M351.356 114.083C352.84 113.716 354.323 113.371 355.821 113.049V234.267H351.356V114.083Z" fill="#CCCCCC"/>
<path d="M441.732 111.543C443.223 111.821 444.714 112.105 446.197 112.412V234.267H441.732V111.543Z" fill="#CCCCCC"/>
<path d="M549.068 434.78H255.924C250.596 434.78 245.485 436.897 241.717 440.665C237.949 444.433 235.833 449.543 235.833 454.872C235.833 460.201 237.949 465.311 241.717 469.079C245.485 472.847 250.596 474.964 255.924 474.964H549.068C551.922 474.964 554.742 474.356 557.342 473.179C559.941 472.002 562.259 470.284 564.141 468.139C564.993 467.17 565.75 466.121 566.403 465.008C566.909 464.154 567.347 463.262 567.714 462.341C568.938 459.293 569.396 455.991 569.046 452.725C568.697 449.459 567.552 446.328 565.712 443.608C563.871 440.888 561.391 438.66 558.49 437.121C555.588 435.582 552.353 434.778 549.068 434.78Z" fill="#CCCCCC"/>
<path d="M521.168 223.853H277.875V238.733H521.168V223.853Z" fill="#CCCCCC"/>
<path d="M397.29 219.389H401.754C402.829 219.389 403.893 219.6 404.886 220.012C405.879 220.423 406.781 221.026 407.541 221.786C408.301 222.546 408.904 223.448 409.315 224.441C409.726 225.434 409.938 226.498 409.938 227.573H389.105C389.105 225.402 389.968 223.321 391.503 221.786C393.037 220.251 395.119 219.389 397.29 219.389H397.29Z" fill="#CCCCCC"/>
<path d="M567.991 464.094C561.483 471.805 554.444 479.052 546.926 485.781H258.074C250.556 479.052 243.516 471.805 237.009 464.094H567.991Z" fill="#1F1F1F"/>
<path d="M426.682 388.978H378.048C377.786 388.975 377.526 389.016 377.277 389.098C376.749 389.261 376.287 389.589 375.959 390.034C375.632 390.479 375.455 391.017 375.456 391.57V468.401H429.282V391.57C429.281 391.229 429.214 390.892 429.083 390.577C428.952 390.262 428.761 389.976 428.519 389.735C428.278 389.495 427.991 389.304 427.676 389.174C427.361 389.044 427.023 388.977 426.682 388.978ZM408.276 426.884C408.278 428.13 407.867 429.342 407.107 430.33C406.383 431.289 405.375 431.997 404.227 432.353C403.079 432.709 401.848 432.695 400.708 432.315C399.568 431.934 398.576 431.205 397.872 430.231C397.168 429.257 396.788 428.086 396.784 426.884V417.97C396.798 416.455 397.41 415.007 398.486 413.941C399.562 412.875 401.015 412.277 402.53 412.277C404.045 412.277 405.498 412.875 406.574 413.941C407.65 415.007 408.262 416.455 408.276 417.97V426.884Z" fill="#2F2E41"/>
<path d="M375.292 465.944V473.353C375.291 473.737 375.444 474.106 375.714 474.378C375.985 474.65 376.353 474.804 376.737 474.806H428.001C428.384 474.803 428.751 474.649 429.022 474.377C429.293 474.105 429.445 473.737 429.446 473.353V465.944H375.292Z" fill="#1F1F1F"/>
<path d="M507.214 269.079H299.329C297.543 269.081 295.831 269.791 294.567 271.054C293.303 272.316 292.591 274.028 292.587 275.814V416.097C292.588 417.884 293.299 419.599 294.563 420.863C295.827 422.127 297.541 422.838 299.329 422.839H507.214C509.002 422.838 510.716 422.127 511.98 420.863C513.244 419.599 513.955 417.884 513.956 416.097V275.814C513.952 274.028 513.24 272.316 511.976 271.054C510.713 269.791 509 269.081 507.214 269.079Z" fill="#1F1F1F"/>
<path d="M505.476 273.948H301.06C300.103 273.95 299.187 274.332 298.511 275.009C297.836 275.686 297.456 276.603 297.456 277.559V414.366C297.458 415.321 297.838 416.237 298.513 416.912C299.189 417.588 300.104 417.968 301.06 417.97H505.476C506.431 417.968 507.347 417.588 508.022 416.912C508.698 416.237 509.078 415.321 509.079 414.366V277.559C509.079 276.603 508.7 275.686 508.024 275.009C507.349 274.332 506.432 273.95 505.476 273.948Z" fill="#1F1F1F"/>
<path d="M467.854 474.687L465.967 465.719C465.888 465.354 465.72 465.013 465.477 464.73C465.233 464.446 464.923 464.227 464.573 464.094C464.32 463.995 464.051 463.944 463.779 463.944H345.933C345.661 463.944 345.392 463.995 345.139 464.094C344.789 464.227 344.479 464.446 344.235 464.73C343.992 465.013 343.823 465.354 343.745 465.719L341.857 474.687C341.789 475.012 341.794 475.349 341.873 475.672C341.951 475.995 342.1 476.297 342.31 476.555C342.519 476.814 342.784 477.022 343.084 477.165C343.384 477.308 343.712 477.383 344.045 477.383H465.659C465.993 477.385 466.323 477.311 466.624 477.167C466.925 477.023 467.189 476.813 467.397 476.552C467.607 476.294 467.757 475.993 467.836 475.671C467.915 475.348 467.922 475.012 467.854 474.687Z" fill="#2F2E41"/>
<path d="M350.177 465.559H347.162C346.96 465.559 346.797 465.723 346.797 465.925V467.441C346.797 467.643 346.96 467.806 347.162 467.806H350.177C350.379 467.806 350.542 467.643 350.542 467.441V465.925C350.542 465.723 350.379 465.559 350.177 465.559Z" fill="#1F1F1F"/>
<path d="M357.668 465.559H354.654C354.452 465.559 354.288 465.723 354.288 465.925V467.441C354.288 467.643 354.452 467.806 354.654 467.806H357.668C357.87 467.806 358.034 467.643 358.034 467.441V465.925C358.034 465.723 357.87 465.559 357.668 465.559Z" fill="#1F1F1F"/>
<path d="M365.159 465.559H362.145C361.943 465.559 361.779 465.723 361.779 465.925V467.441C361.779 467.643 361.943 467.806 362.145 467.806H365.159C365.361 467.806 365.525 467.643 365.525 467.441V465.925C365.525 465.723 365.361 465.559 365.159 465.559Z" fill="#1F1F1F"/>
<path d="M372.65 465.559H369.636C369.434 465.559 369.271 465.723 369.271 465.925V467.441C369.271 467.643 369.434 467.806 369.636 467.806H372.65C372.852 467.806 373.016 467.643 373.016 467.441V465.925C373.016 465.723 372.852 465.559 372.65 465.559Z" fill="#1F1F1F"/>
<path d="M380.142 465.559H377.128C376.926 465.559 376.762 465.723 376.762 465.925V467.441C376.762 467.643 376.926 467.806 377.128 467.806H380.142C380.344 467.806 380.508 467.643 380.508 467.441V465.925C380.508 465.723 380.344 465.559 380.142 465.559Z" fill="#1F1F1F"/>
<path d="M387.633 465.559H384.619C384.417 465.559 384.253 465.723 384.253 465.925V467.441C384.253 467.643 384.417 467.806 384.619 467.806H387.633C387.835 467.806 387.999 467.643 387.999 467.441V465.925C387.999 465.723 387.835 465.559 387.633 465.559Z" fill="#1F1F1F"/>
<path d="M395.125 465.559H392.11C391.908 465.559 391.745 465.723 391.745 465.925V467.441C391.745 467.643 391.908 467.806 392.11 467.806H395.125C395.327 467.806 395.49 467.643 395.49 467.441V465.925C395.49 465.723 395.327 465.559 395.125 465.559Z" fill="#1F1F1F"/>
<path d="M402.616 465.559H399.602C399.4 465.559 399.236 465.723 399.236 465.925V467.441C399.236 467.643 399.4 467.806 399.602 467.806H402.616C402.818 467.806 402.982 467.643 402.982 467.441V465.925C402.982 465.723 402.818 465.559 402.616 465.559Z" fill="#1F1F1F"/>
<path d="M410.107 465.559H407.093C406.891 465.559 406.727 465.723 406.727 465.925V467.441C406.727 467.643 406.891 467.806 407.093 467.806H410.107C410.309 467.806 410.473 467.643 410.473 467.441V465.925C410.473 465.723 410.309 465.559 410.107 465.559Z" fill="#1F1F1F"/>
<path d="M417.599 465.559H414.584C414.382 465.559 414.219 465.723 414.219 465.925V467.441C414.219 467.643 414.382 467.806 414.584 467.806H417.599C417.801 467.806 417.964 467.643 417.964 467.441V465.925C417.964 465.723 417.801 465.559 417.599 465.559Z" fill="#1F1F1F"/>
<path d="M425.09 465.559H422.076C421.874 465.559 421.71 465.723 421.71 465.925V467.441C421.71 467.643 421.874 467.806 422.076 467.806H425.09C425.292 467.806 425.456 467.643 425.456 467.441V465.925C425.456 465.723 425.292 465.559 425.09 465.559Z" fill="#1F1F1F"/>
<path d="M432.581 465.559H429.567C429.365 465.559 429.201 465.723 429.201 465.925V467.441C429.201 467.643 429.365 467.806 429.567 467.806H432.581C432.783 467.806 432.947 467.643 432.947 467.441V465.925C432.947 465.723 432.783 465.559 432.581 465.559Z" fill="#1F1F1F"/>
<path d="M440.073 465.559H437.059C436.857 465.559 436.693 465.723 436.693 465.925V467.441C436.693 467.643 436.857 467.806 437.059 467.806H440.073C440.275 467.806 440.439 467.643 440.439 467.441V465.925C440.439 465.723 440.275 465.559 440.073 465.559Z" fill="#1F1F1F"/>
<path d="M447.564 465.559H444.55C444.348 465.559 444.184 465.723 444.184 465.925V467.441C444.184 467.643 444.348 467.806 444.55 467.806H447.564C447.766 467.806 447.93 467.643 447.93 467.441V465.925C447.93 465.723 447.766 465.559 447.564 465.559Z" fill="#1F1F1F"/>
<path d="M455.055 465.559H452.041C451.839 465.559 451.676 465.723 451.676 465.925V467.441C451.676 467.643 451.839 467.806 452.041 467.806H455.055C455.257 467.806 455.421 467.643 455.421 467.441V465.925C455.421 465.723 455.257 465.559 455.055 465.559Z" fill="#1F1F1F"/>
<path d="M462.547 465.559H459.532C459.33 465.559 459.167 465.723 459.167 465.925V467.441C459.167 467.643 459.33 467.806 459.532 467.806H462.547C462.749 467.806 462.912 467.643 462.912 467.441V465.925C462.912 465.723 462.749 465.559 462.547 465.559Z" fill="#1F1F1F"/>
<path d="M350.088 469.305H347.074C346.872 469.305 346.708 469.468 346.708 469.67V471.186C346.708 471.388 346.872 471.552 347.074 471.552H350.088C350.29 471.552 350.454 471.388 350.454 471.186V469.67C350.454 469.468 350.29 469.305 350.088 469.305Z" fill="#1F1F1F"/>
<path d="M357.579 469.305H354.565C354.363 469.305 354.199 469.468 354.199 469.67V471.186C354.199 471.388 354.363 471.552 354.565 471.552H357.579C357.781 471.552 357.945 471.388 357.945 471.186V469.67C357.945 469.468 357.781 469.305 357.579 469.305Z" fill="#1F1F1F"/>
<path d="M365.071 469.305H362.056C361.854 469.305 361.691 469.468 361.691 469.67V471.186C361.691 471.388 361.854 471.552 362.056 471.552H365.071C365.273 471.552 365.436 471.388 365.436 471.186V469.67C365.436 469.468 365.273 469.305 365.071 469.305Z" fill="#1F1F1F"/>
<path d="M372.562 469.305H369.548C369.346 469.305 369.182 469.468 369.182 469.67V471.186C369.182 471.388 369.346 471.552 369.548 471.552H372.562C372.764 471.552 372.928 471.388 372.928 471.186V469.67C372.928 469.468 372.764 469.305 372.562 469.305Z" fill="#1F1F1F"/>
<path d="M380.053 469.305H377.039C376.837 469.305 376.673 469.468 376.673 469.67V471.186C376.673 471.388 376.837 471.552 377.039 471.552H380.053C380.255 471.552 380.419 471.388 380.419 471.186V469.67C380.419 469.468 380.255 469.305 380.053 469.305Z" fill="#1F1F1F"/>
<path d="M387.545 469.305H384.531C384.329 469.305 384.165 469.468 384.165 469.67V471.186C384.165 471.388 384.329 471.552 384.531 471.552H387.545C387.747 471.552 387.91 471.388 387.91 471.186V469.67C387.91 469.468 387.747 469.305 387.545 469.305Z" fill="#1F1F1F"/>
<path d="M395.036 469.305H392.022C391.82 469.305 391.656 469.468 391.656 469.67V471.186C391.656 471.388 391.82 471.552 392.022 471.552H395.036C395.238 471.552 395.402 471.388 395.402 471.186V469.67C395.402 469.468 395.238 469.305 395.036 469.305Z" fill="#1F1F1F"/>
<path d="M402.527 469.305H399.513C399.311 469.305 399.147 469.468 399.147 469.67V471.186C399.147 471.388 399.311 471.552 399.513 471.552H402.527C402.729 471.552 402.893 471.388 402.893 471.186V469.67C402.893 469.468 402.729 469.305 402.527 469.305Z" fill="#1F1F1F"/>
<path d="M410.019 469.305H407.005C406.803 469.305 406.639 469.468 406.639 469.67V471.186C406.639 471.388 406.803 471.552 407.005 471.552H410.019C410.221 471.552 410.385 471.388 410.385 471.186V469.67C410.385 469.468 410.221 469.305 410.019 469.305Z" fill="#1F1F1F"/>
<path d="M417.51 469.305H414.496C414.294 469.305 414.13 469.468 414.13 469.67V471.186C414.13 471.388 414.294 471.552 414.496 471.552H417.51C417.712 471.552 417.876 471.388 417.876 471.186V469.67C417.876 469.468 417.712 469.305 417.51 469.305Z" fill="#1F1F1F"/>
<path d="M425.002 469.305H421.987C421.785 469.305 421.622 469.468 421.622 469.67V471.186C421.622 471.388 421.785 471.552 421.987 471.552H425.002C425.204 471.552 425.367 471.388 425.367 471.186V469.67C425.367 469.468 425.204 469.305 425.002 469.305Z" fill="#1F1F1F"/>
<path d="M432.493 469.305H429.479C429.277 469.305 429.113 469.468 429.113 469.67V471.186C429.113 471.388 429.277 471.552 429.479 471.552H432.493C432.695 471.552 432.858 471.388 432.858 471.186V469.67C432.858 469.468 432.695 469.305 432.493 469.305Z" fill="#1F1F1F"/>
<path d="M439.984 469.305H436.97C436.768 469.305 436.604 469.468 436.604 469.67V471.186C436.604 471.388 436.768 471.552 436.97 471.552H439.984C440.186 471.552 440.35 471.388 440.35 471.186V469.67C440.35 469.468 440.186 469.305 439.984 469.305Z" fill="#1F1F1F"/>
<path d="M447.476 469.305H444.461C444.259 469.305 444.096 469.468 444.096 469.67V471.186C444.096 471.388 444.259 471.552 444.461 471.552H447.476C447.678 471.552 447.841 471.388 447.841 471.186V469.67C447.841 469.468 447.678 469.305 447.476 469.305Z" fill="#1F1F1F"/>
<path d="M454.967 469.305H451.953C451.751 469.305 451.587 469.468 451.587 469.67V471.186C451.587 471.388 451.751 471.552 451.953 471.552H454.967C455.169 471.552 455.333 471.388 455.333 471.186V469.67C455.333 469.468 455.169 469.305 454.967 469.305Z" fill="#1F1F1F"/>
<path d="M462.458 469.305H459.444C459.242 469.305 459.078 469.468 459.078 469.67V471.186C459.078 471.388 459.242 471.552 459.444 471.552H462.458C462.66 471.552 462.824 471.388 462.824 471.186V469.67C462.824 469.468 462.66 469.305 462.458 469.305Z" fill="#1F1F1F"/>
<path d="M412.266 473.799H383.032C382.83 473.799 382.667 473.963 382.667 474.165V475.681C382.667 475.883 382.83 476.047 383.032 476.047H412.266C412.468 476.047 412.632 475.883 412.632 475.681V474.165C412.632 473.963 412.468 473.799 412.266 473.799Z" fill="#1F1F1F"/>
<path d="M495.204 292.794H303.932C303.733 292.79 303.544 292.708 303.405 292.566C303.266 292.423 303.188 292.232 303.188 292.033C303.188 291.835 303.266 291.644 303.405 291.501C303.544 291.359 303.733 291.277 303.932 291.273H495.204C495.403 291.277 495.592 291.359 495.731 291.501C495.87 291.644 495.948 291.835 495.948 292.033C495.948 292.232 495.87 292.423 495.731 292.566C495.592 292.708 495.403 292.79 495.204 292.794Z" fill="#1F1F1F"/>
<path d="M316.953 287.389C319.414 287.389 321.41 285.349 321.41 282.832C321.41 280.315 319.414 278.275 316.953 278.275C314.491 278.275 312.495 280.315 312.495 282.832C312.495 285.349 314.491 287.389 316.953 287.389Z" fill="#1F1F1F"/>
<path d="M332.352 287.389C334.814 287.389 336.809 285.349 336.809 282.832C336.809 280.315 334.814 278.275 332.352 278.275C329.89 278.275 327.894 280.315 327.894 282.832C327.894 285.349 329.89 287.389 332.352 287.389Z" fill="#1F1F1F"/>
<path d="M347.751 287.389C350.213 287.389 352.209 285.349 352.209 282.832C352.209 280.315 350.213 278.275 347.751 278.275C345.289 278.275 343.293 280.315 343.293 282.832C343.293 285.349 345.289 287.389 347.751 287.389Z" fill="#1F1F1F"/>
<path d="M485.931 279.402H474.994C474.778 279.407 474.572 279.497 474.421 279.651C474.27 279.806 474.185 280.014 474.185 280.23C474.185 280.446 474.27 280.654 474.421 280.809C474.572 280.963 474.778 281.053 474.994 281.058H485.931C486.149 281.055 486.356 280.966 486.509 280.811C486.662 280.656 486.747 280.447 486.747 280.23C486.747 280.012 486.662 279.804 486.509 279.649C486.356 279.494 486.149 279.405 485.931 279.402Z" fill="#1F1F1F"/>
<path d="M485.931 282.511H474.994C474.777 282.516 474.571 282.605 474.42 282.76C474.269 282.915 474.184 283.122 474.184 283.339C474.184 283.555 474.269 283.763 474.42 283.918C474.571 284.072 474.777 284.162 474.994 284.167H485.931C486.149 284.164 486.357 284.076 486.51 283.921C486.663 283.766 486.749 283.557 486.749 283.339C486.749 283.121 486.663 282.912 486.51 282.757C486.357 282.602 486.149 282.514 485.931 282.511Z" fill="#1F1F1F"/>
<path d="M485.931 285.62H474.994C474.778 285.625 474.572 285.714 474.421 285.869C474.27 286.024 474.185 286.231 474.185 286.448C474.185 286.664 474.27 286.872 474.421 287.026C474.572 287.181 474.778 287.27 474.994 287.275H485.931C486.149 287.272 486.356 287.184 486.509 287.029C486.662 286.874 486.747 286.665 486.747 286.448C486.747 286.23 486.662 286.021 486.509 285.866C486.356 285.712 486.149 285.623 485.931 285.62Z" fill="#1F1F1F"/>
<path d="M320.425 310.471H316.495C315.303 310.471 314.337 311.437 314.337 312.629C314.337 313.82 315.303 314.786 316.495 314.786H320.425C321.617 314.786 322.582 313.82 322.582 312.629C322.582 311.437 321.617 310.471 320.425 310.471Z" fill="#E6E6E6"/>
<path d="M365.373 310.471H361.443C360.251 310.471 359.285 311.437 359.285 312.629C359.285 313.82 360.251 314.786 361.443 314.786H365.373C366.565 314.786 367.53 313.82 367.53 312.629C367.53 311.437 366.565 310.471 365.373 310.471Z" fill="#E6E6E6"/>
<path d="M378.108 310.471H374.178C372.987 310.471 372.021 311.437 372.021 312.629C372.021 313.82 372.987 314.786 374.178 314.786H378.108C379.3 314.786 380.266 313.82 380.266 312.629C380.266 311.437 379.3 310.471 378.108 310.471Z" fill="#E6E6E6"/>
<path d="M353.147 310.111H328.721C327.529 310.111 326.563 311.077 326.563 312.269C326.563 313.46 327.529 314.426 328.721 314.426H353.147C354.339 314.426 355.305 313.46 355.305 312.269C355.305 311.077 354.339 310.111 353.147 310.111Z" fill="#E6E6E6"/>
<path d="M413.078 310.111H388.652C387.46 310.111 386.494 311.077 386.494 312.269C386.494 313.46 387.46 314.426 388.652 314.426H413.078C414.269 314.426 415.235 313.46 415.235 312.269C415.235 311.077 414.269 310.111 413.078 310.111Z" fill="#E6E6E6"/>
<path d="M332.411 320.21H328.481C327.289 320.21 326.323 321.176 326.323 322.367C326.323 323.559 327.289 324.525 328.481 324.525H332.411C333.603 324.525 334.569 323.559 334.569 322.367C334.569 321.176 333.603 320.21 332.411 320.21Z" fill="#E6E6E6"/>
<path d="M377.359 320.21H373.429C372.238 320.21 371.272 321.176 371.272 322.367C371.272 323.559 372.238 324.525 373.429 324.525H377.359C378.551 324.525 379.517 323.559 379.517 322.367C379.517 321.176 378.551 320.21 377.359 320.21Z" fill="#E6E6E6"/>
<path d="M390.094 320.21H386.164C384.973 320.21 384.007 321.176 384.007 322.367C384.007 323.559 384.973 324.525 386.164 324.525H390.094C391.286 324.525 392.252 323.559 392.252 322.367C392.252 321.176 391.286 320.21 390.094 320.21Z" fill="#E6E6E6"/>
<path d="M365.133 319.85H340.707C339.516 319.85 338.55 320.816 338.55 322.008C338.55 323.199 339.516 324.165 340.707 324.165H365.133C366.325 324.165 367.291 323.199 367.291 322.008C367.291 320.816 366.325 319.85 365.133 319.85Z" fill="#E6E6E6"/>
<path d="M425.064 319.85H400.638C399.446 319.85 398.48 320.816 398.48 322.008C398.48 323.199 399.446 324.165 400.638 324.165H425.064C426.256 324.165 427.222 323.199 427.222 322.008C427.222 320.816 426.256 319.85 425.064 319.85Z" fill="#E6E6E6"/>
<path d="M344.397 329.949H340.467C339.276 329.949 338.31 330.915 338.31 332.106C338.31 333.298 339.276 334.264 340.467 334.264H344.397C345.589 334.264 346.555 333.298 346.555 332.106C346.555 330.915 345.589 329.949 344.397 329.949Z" fill="#E6E6E6"/>
<path d="M389.345 329.949H385.415C384.224 329.949 383.258 330.915 383.258 332.106C383.258 333.298 384.224 334.264 385.415 334.264H389.345C390.537 334.264 391.503 333.298 391.503 332.106C391.503 330.915 390.537 329.949 389.345 329.949Z" fill="#E6E6E6"/>
<path d="M402.081 329.949H398.151C396.959 329.949 395.993 330.915 395.993 332.106C395.993 333.298 396.959 334.264 398.151 334.264H402.081C403.272 334.264 404.238 333.298 404.238 332.106C404.238 330.915 403.272 329.949 402.081 329.949Z" fill="#E6E6E6"/>
<path d="M377.119 329.589H352.693C351.502 329.589 350.536 330.555 350.536 331.746C350.536 332.938 351.502 333.904 352.693 333.904H377.119C378.311 333.904 379.277 332.938 379.277 331.746C379.277 330.555 378.311 329.589 377.119 329.589Z" fill="#E6E6E6"/>
<path d="M437.05 329.589H412.624C411.432 329.589 410.467 330.555 410.467 331.746C410.467 332.938 411.432 333.904 412.624 333.904H437.05C438.242 333.904 439.208 332.938 439.208 331.746C439.208 330.555 438.242 329.589 437.05 329.589Z" fill="#E6E6E6"/>
<path d="M356.383 339.687H352.453C351.262 339.687 350.296 340.653 350.296 341.845C350.296 343.036 351.262 344.002 352.453 344.002H356.383C357.575 344.002 358.541 343.036 358.541 341.845C358.541 340.653 357.575 339.687 356.383 339.687Z" fill="#E6E6E6"/>
<path d="M401.331 339.687H397.401C396.21 339.687 395.244 340.653 395.244 341.845C395.244 343.036 396.21 344.002 397.401 344.002H401.331C402.523 344.002 403.489 343.036 403.489 341.845C403.489 340.653 402.523 339.687 401.331 339.687Z" fill="#E6E6E6"/>
<path d="M414.067 339.687H410.137C408.945 339.687 407.979 340.653 407.979 341.845C407.979 343.036 408.945 344.002 410.137 344.002H414.067C415.258 344.002 416.224 343.036 416.224 341.845C416.224 340.653 415.258 339.687 414.067 339.687Z" fill="#E6E6E6"/>
<path d="M389.106 339.328H364.679C363.488 339.328 362.522 340.294 362.522 341.485C362.522 342.677 363.488 343.643 364.679 343.643H389.106C390.297 343.643 391.263 342.677 391.263 341.485C391.263 340.294 390.297 339.328 389.106 339.328Z" fill="#E6E6E6"/>
<path d="M365.373 378.413H361.443C360.251 378.413 359.285 379.379 359.285 380.57C359.285 381.762 360.251 382.728 361.443 382.728H365.373C366.565 382.728 367.53 381.762 367.53 380.57C367.53 379.379 366.565 378.413 365.373 378.413Z" fill="#E6E6E6"/>
<path d="M378.108 378.413H374.178C372.987 378.413 372.021 379.379 372.021 380.57C372.021 381.762 372.987 382.728 374.178 382.728H378.108C379.3 382.728 380.266 381.762 380.266 380.57C380.266 379.379 379.3 378.413 378.108 378.413Z" fill="#E6E6E6"/>
<path d="M413.078 378.773H388.652C387.46 378.773 386.494 379.739 386.494 380.93C386.494 382.122 387.46 383.088 388.652 383.088H413.078C414.269 383.088 415.235 382.122 415.235 380.93C415.235 379.739 414.269 378.773 413.078 378.773Z" fill="#E6E6E6"/>
<path d="M320.425 378.413H316.495C315.303 378.413 314.337 379.379 314.337 380.57C314.337 381.762 315.303 382.728 316.495 382.728H320.425C321.617 382.728 322.582 381.762 322.582 380.57C322.582 379.379 321.617 378.413 320.425 378.413Z" fill="#E6E6E6"/>
<path d="M353.147 378.773H328.721C327.529 378.773 326.563 379.739 326.563 380.93C326.563 382.122 327.529 383.088 328.721 383.088H353.147C354.339 383.088 355.305 382.122 355.305 380.93C355.305 379.739 354.339 378.773 353.147 378.773Z" fill="#E6E6E6"/>
<path d="M332.411 368.674H328.481C327.289 368.674 326.323 369.64 326.323 370.832C326.323 372.023 327.289 372.989 328.481 372.989H332.411C333.603 372.989 334.569 372.023 334.569 370.832C334.569 369.64 333.603 368.674 332.411 368.674Z" fill="#E6E6E6"/>
<path d="M377.359 368.674H373.429C372.238 368.674 371.272 369.64 371.272 370.832C371.272 372.023 372.238 372.989 373.429 372.989H377.359C378.551 372.989 379.517 372.023 379.517 370.832C379.517 369.64 378.551 368.674 377.359 368.674Z" fill="#E6E6E6"/>
<path d="M390.094 368.674H386.164C384.973 368.674 384.007 369.64 384.007 370.832C384.007 372.023 384.973 372.989 386.164 372.989H390.094C391.286 372.989 392.252 372.023 392.252 370.832C392.252 369.64 391.286 368.674 390.094 368.674Z" fill="#E6E6E6"/>
<path d="M365.133 369.034H340.707C339.516 369.034 338.55 370 338.55 371.191C338.55 372.383 339.516 373.349 340.707 373.349H365.133C366.325 373.349 367.291 372.383 367.291 371.191C367.291 370 366.325 369.034 365.133 369.034Z" fill="#E6E6E6"/>
<path d="M344.397 358.935H340.467C339.276 358.935 338.31 359.901 338.31 361.093C338.31 362.284 339.276 363.25 340.467 363.25H344.397C345.589 363.25 346.555 362.284 346.555 361.093C346.555 359.901 345.589 358.935 344.397 358.935Z" fill="#E6E6E6"/>
<path d="M389.345 358.935H385.415C384.224 358.935 383.258 359.901 383.258 361.093C383.258 362.284 384.224 363.25 385.415 363.25H389.345C390.537 363.25 391.503 362.284 391.503 361.093C391.503 359.901 390.537 358.935 389.345 358.935Z" fill="#E6E6E6"/>
<path d="M402.081 358.935H398.151C396.959 358.935 395.993 359.901 395.993 361.093C395.993 362.284 396.959 363.25 398.151 363.25H402.081C403.272 363.25 404.238 362.284 404.238 361.093C404.238 359.901 403.272 358.935 402.081 358.935Z" fill="#E6E6E6"/>
<path d="M377.119 359.295H352.693C351.502 359.295 350.536 360.261 350.536 361.453C350.536 362.644 351.502 363.61 352.693 363.61H377.119C378.311 363.61 379.277 362.644 379.277 361.453C379.277 360.261 378.311 359.295 377.119 359.295Z" fill="#E6E6E6"/>
<path d="M356.383 349.197H352.453C351.262 349.197 350.296 350.162 350.296 351.354C350.296 352.546 351.262 353.511 352.453 353.511H356.383C357.575 353.511 358.541 352.546 358.541 351.354C358.541 350.162 357.575 349.197 356.383 349.197Z" fill="#E6E6E6"/>
<path d="M401.331 349.197H397.401C396.21 349.197 395.244 350.162 395.244 351.354C395.244 352.546 396.21 353.511 397.401 353.511H401.331C402.523 353.511 403.489 352.546 403.489 351.354C403.489 350.162 402.523 349.197 401.331 349.197Z" fill="#E6E6E6"/>
<path d="M414.067 349.197H410.137C408.945 349.197 407.979 350.162 407.979 351.354C407.979 352.546 408.945 353.511 410.137 353.511H414.067C415.258 353.511 416.224 352.546 416.224 351.354C416.224 350.162 415.258 349.197 414.067 349.197Z" fill="#E6E6E6"/>
<path d="M389.106 349.556H364.679C363.488 349.556 362.522 350.522 362.522 351.714C362.522 352.905 363.488 353.871 364.679 353.871H389.106C390.297 353.871 391.263 352.905 391.263 351.714C391.263 350.522 390.297 349.556 389.106 349.556Z" fill="#E6E6E6"/>
<path d="M497.498 519.103C497.041 519.335 496.576 519.567 496.119 519.792C484.283 525.71 474.814 529.074 461.861 532.759C460.768 520.549 459.711 499.086 458.685 485.781C458.415 482.328 458.146 479.429 457.884 477.383C457.817 476.296 457.595 475.224 457.224 474.2L457.269 477.383L457.382 485.781L458.033 533.808C441.921 538.071 425.37 540.457 408.71 540.918C407.841 540.94 406.987 540.955 406.163 540.97C405.871 540.978 405.586 540.985 405.302 540.985C404.365 540.992 403.436 541 402.5 541C384.943 541.013 367.45 538.892 350.405 534.685C350.772 522.601 351.139 501.378 351.491 485.781C351.566 482.732 351.634 479.893 351.709 477.383C351.851 472.02 352.001 468.154 352.143 466.858C352.017 467.088 351.919 467.332 351.851 467.585C351.157 470.815 350.684 474.089 350.435 477.383C350.173 479.893 349.911 482.732 349.649 485.781C348.255 501.985 346.802 524.017 345.304 533.359C336.386 530.924 327.635 527.914 319.106 524.347C314.611 522.474 310.197 520.454 305.862 518.286C306.686 512.892 307.547 506.847 308.431 500.577C309.12 495.715 309.832 490.718 310.559 485.781C311.682 478.155 312.836 470.679 314.005 464.094C315.713 454.475 317.466 446.744 319.204 443.193C320.852 439.822 322.5 436.496 324.096 433.312C324.65 432.196 325.204 431.094 325.744 430.023C325.871 429.768 325.998 429.521 326.126 429.274C327.272 427.019 328.381 424.862 329.437 422.839C330.343 421.108 331.205 419.475 332.021 417.97C333.999 414.314 335.677 411.4 336.921 409.557C342.12 401.67 349.86 395.799 358.855 392.918L359.08 392.859L359.237 392.926L374.557 388.221L376.797 387.532L378.303 387.068L383.607 383.03L386.491 380.835L389.195 378.775L394.484 374.752L427.229 376.767L433.604 392.117L447.883 397.338L448.13 397.226L448.347 397.136L448.572 397.196C457.566 400.08 465.305 405.95 470.506 413.834C471.211 414.891 472.065 416.284 473.031 417.97C473.855 419.4 474.754 421.034 475.728 422.839C477.114 425.408 478.627 428.308 480.23 431.446C480.582 432.136 480.942 432.84 481.301 433.552C481.968 434.87 482.645 436.216 483.332 437.589C484.927 440.773 486.575 444.099 488.223 447.478C489.654 450.407 491.1 456.43 492.524 464.094C493.7 470.461 494.868 477.968 496 485.781C497.483 495.91 495.902 508.038 497.243 517.357C497.325 517.949 497.415 518.526 497.498 519.103Z" fill="#FFBD59"/>
<path d="M402.961 362.5C423.994 362.5 441.044 345.449 441.044 324.416C441.044 303.383 423.994 286.333 402.961 286.333C381.928 286.333 364.877 303.383 364.877 324.416C364.877 345.449 381.928 362.5 402.961 362.5Z" fill="#FFB6B6"/>
<path d="M465.765 273.948C465.012 272.191 464.01 270.551 462.79 269.079C457.007 262.015 446.489 258.906 435.694 267.266C433.616 266.802 431.45 266.926 429.439 267.626C428.489 267.969 427.6 268.46 426.802 269.079C425.167 270.354 423.892 272.032 423.101 273.948C422.678 274.96 422.401 276.027 422.277 277.117C419.609 275.731 416.785 274.667 413.864 273.948C406.699 272.166 399.207 272.166 392.042 273.948C389.746 274.529 387.535 275.405 385.465 276.555C381.959 278.578 379.944 281.133 379.584 283.972C374.527 284.256 369.268 286.916 365.35 291.276C364.908 291.763 364.481 292.272 364.084 292.797C360.79 297.108 359.019 302.391 359.05 307.817V308.768H360.002C362.608 308.766 365.191 309.269 367.605 310.251C369.17 310.88 370.652 311.698 372.018 312.686C372.911 313.32 373.755 314.021 374.542 314.784C376.367 316.55 377.913 318.584 379.127 320.814C382.239 326.451 383.319 332.987 382.184 339.325C381.923 340.793 381.542 342.236 381.045 343.64C380.337 345.644 379.405 347.562 378.266 349.356C378.221 349.424 378.183 349.491 378.138 349.559C377.636 350.36 377.157 351.177 376.707 352.001C376.37 352.615 376.056 353.244 375.763 353.874C374.91 355.625 374.188 357.438 373.606 359.297C372.563 362.586 371.949 365.995 371.778 369.441C371.726 370.355 371.711 371.268 371.741 372.182C371.785 374.538 372.043 376.885 372.512 379.194C372.58 379.509 372.647 379.816 372.714 380.131L373.261 382.521L374.557 388.221L375.456 392.147L376.288 395.788L377.516 394.027C377.936 393.428 378.992 391.585 380.408 388.978C381.344 387.278 382.431 385.247 383.607 383.03C385.247 379.921 387.045 376.453 388.806 372.992C389.517 371.591 390.222 370.197 390.903 368.834C392.192 366.249 393.406 363.755 394.447 361.537C395.406 359.492 396.222 357.679 396.829 356.226C397.016 357.177 397.174 358.144 397.294 359.118C397.428 360.106 397.526 361.11 397.578 362.114C397.593 362.264 397.601 362.421 397.608 362.571L397.638 363.185L397.646 363.365L398.44 363.47C403.02 363.96 407.637 363.996 412.224 363.575H412.231C418.308 363.117 424.269 361.673 429.881 359.297C433.068 357.915 436.044 356.089 438.721 353.874C439.971 352.838 441.139 351.706 442.212 350.488C442.481 350.18 442.744 349.873 442.998 349.559C444.481 347.737 445.75 345.751 446.781 343.64C447.472 342.248 448.058 340.805 448.534 339.325C451.411 330.613 451.246 319.743 448.04 306.828C448.906 306.661 449.736 306.342 450.49 305.884C452.842 304.468 454.475 301.659 454.984 298.228L455.794 298.445C458.662 297.109 461.217 295.185 463.292 292.797C463.703 292.31 464.089 291.803 464.446 291.276C468.109 285.882 468.139 279.41 465.765 273.948Z" fill="#2F2E41"/>
<path opacity="0.2" d="M340.562 464.061L346.927 439.495L352.548 460.693L340.562 464.061Z" fill="black"/>
<path d="M509.948 448.055C507.671 479.429 510.031 493.243 497.46 519.11C486.023 524.708 474.11 529.276 461.861 532.759C460.588 533.119 459.312 533.469 458.033 533.808C441.921 538.071 425.37 540.457 408.71 540.918C407.841 540.94 406.987 540.955 406.163 540.97C405.871 540.978 405.586 540.985 405.302 540.985C404.365 540.992 403.436 541 402.5 541C384.943 541.013 367.45 538.892 350.405 534.685C348.697 534.265 346.997 533.823 345.304 533.359C336.386 530.924 327.635 527.914 319.106 524.347C314.611 522.474 310.197 520.454 305.862 518.286C304.88 517.792 303.899 517.297 302.932 516.788C297.966 508.053 295.141 497.43 295.082 484.665C298.52 462.67 502.352 429.087 509.948 448.055Z" fill="#2F2E41"/>
<path opacity="0.2" d="M509.943 453.428C510.059 451.486 510.189 449.479 510.341 447.39C502.744 428.422 298.912 462.005 295.474 484C295.483 486.017 295.569 487.974 295.714 489.884C304.041 468.176 497.685 436.256 509.943 453.428Z" fill="black"/>
<path d="M308.181 364.318C308.23 363.639 308.134 362.957 307.898 362.318C307.662 361.679 307.292 361.098 306.812 360.614C306.333 360.131 305.756 359.755 305.119 359.513C304.482 359.271 303.801 359.169 303.122 359.212C302.869 359.222 302.617 359.253 302.369 359.306L272.582 366.035C271.916 366.197 271.292 366.496 270.749 366.913C270.206 367.331 269.756 367.857 269.429 368.459C268.992 368.475 268.558 368.538 268.135 368.647C267.208 368.857 266.331 369.248 265.555 369.797C264.779 370.345 264.119 371.042 263.612 371.846C263.105 372.65 262.762 373.546 262.601 374.482C262.441 375.419 262.466 376.378 262.676 377.305C262.886 378.232 263.277 379.109 263.826 379.885C264.375 380.661 265.071 381.321 265.875 381.828C267.499 382.852 269.463 383.188 271.335 382.764C272.4 382.517 273.397 382.035 274.252 381.352L284.346 409.775C284.85 410.666 285.629 411.369 286.566 411.781C287.504 412.192 288.549 412.289 289.546 412.057L308.91 407.681C309.899 407.449 310.79 406.91 311.453 406.141C312.117 405.371 312.52 404.411 312.604 403.399L308.181 364.318ZM270.888 380.741C269.551 381.042 268.149 380.801 266.989 380.071C265.829 379.34 265.007 378.18 264.701 376.844C264.396 375.507 264.633 374.105 265.361 372.943C266.088 371.782 267.246 370.956 268.582 370.647C268.676 370.623 268.77 370.647 268.864 370.623C268.857 371.481 269.076 372.325 269.499 373.07L273.193 379.517C272.55 380.127 271.753 380.55 270.888 380.741Z" fill="#2F2E41"/>
<path d="M303.122 359.212C303.404 362.977 296.957 367.306 288.322 369.023C280.393 370.647 273.288 369.517 271.288 366.553C271.69 366.314 272.126 366.14 272.582 366.035L302.369 359.306C302.617 359.253 302.869 359.222 303.122 359.212Z" fill="#1F1F1F"/>
<path d="M282.521 454.778L299.252 446.413L285.31 408.768L281.635 389.784C281.158 387.317 280.041 385.019 278.398 383.12C276.754 381.22 274.64 379.785 272.268 378.957C269.896 378.13 267.348 377.94 264.88 378.406C262.411 378.872 260.108 379.978 258.2 381.613C255.374 384.036 253.599 387.462 253.251 391.168C252.902 394.875 254.008 398.572 256.333 401.479L269.973 418.528L282.521 454.778Z" fill="#FFB6B6"/>
<path d="M299.252 439.442L276.944 450.596L293.873 503.641C295.089 507.45 297.268 510.881 300.2 513.6C303.132 516.319 306.716 518.235 310.606 519.161C315.402 520.303 320.437 519.887 324.982 517.975C329.526 516.063 333.343 512.753 335.88 508.525L380.772 431.579C383.953 426.276 384.935 419.94 383.508 413.924C382.081 407.908 378.358 402.688 373.134 399.379C370.324 397.6 367.171 396.432 363.881 395.952C360.59 395.471 357.235 395.689 354.034 396.591C350.833 397.494 347.858 399.059 345.302 401.187C342.747 403.315 340.668 405.957 339.201 408.942L311.8 467.327L299.252 439.442Z" fill="#FFBD59"/>
<path d="M292.352 391.504C292.311 391.504 292.27 391.497 292.231 391.483L287.36 389.806C287.301 389.786 287.248 389.752 287.206 389.706C287.164 389.66 287.134 389.605 287.119 389.545C287.103 389.484 287.103 389.421 287.119 389.361C287.134 389.3 287.164 389.245 287.206 389.199L290.828 385.255C290.862 385.219 290.902 385.189 290.946 385.168C290.991 385.147 291.039 385.135 291.089 385.133C291.138 385.131 291.187 385.139 291.233 385.155C291.28 385.172 291.322 385.198 291.359 385.231C291.395 385.265 291.424 385.305 291.445 385.35C291.466 385.394 291.477 385.443 291.479 385.492C291.481 385.541 291.474 385.59 291.457 385.637C291.44 385.683 291.414 385.725 291.38 385.762L288.145 389.284L292.474 390.775C292.558 390.804 292.629 390.861 292.674 390.938C292.72 391.014 292.736 391.104 292.722 391.191C292.707 391.278 292.662 391.358 292.594 391.415C292.527 391.472 292.441 391.504 292.352 391.504Z" fill="#3F005E"/>
<path d="M299.028 390.137C298.954 390.137 298.881 390.115 298.819 390.073C298.757 390.031 298.709 389.972 298.681 389.903C298.653 389.834 298.646 389.758 298.662 389.685C298.677 389.612 298.714 389.545 298.768 389.493L302.06 386.31L297.638 384.488C297.592 384.469 297.551 384.442 297.516 384.407C297.481 384.372 297.453 384.331 297.434 384.286C297.415 384.24 297.405 384.192 297.405 384.142C297.405 384.093 297.415 384.044 297.434 383.999C297.452 383.953 297.48 383.912 297.515 383.877C297.549 383.842 297.591 383.815 297.636 383.796C297.682 383.777 297.73 383.767 297.78 383.767C297.829 383.767 297.877 383.777 297.923 383.796L302.874 385.836C302.932 385.86 302.982 385.897 303.022 385.945C303.061 385.994 303.088 386.051 303.1 386.112C303.111 386.173 303.108 386.236 303.089 386.295C303.07 386.355 303.037 386.408 302.992 386.451L299.289 390.032C299.219 390.099 299.126 390.137 299.028 390.137Z" fill="#3F005E"/>
<path d="M293.375 393.795C293.337 393.795 293.3 393.789 293.265 393.778C293.218 393.764 293.174 393.74 293.136 393.709C293.098 393.677 293.067 393.639 293.044 393.595C293.021 393.552 293.006 393.504 293.002 393.455C292.997 393.406 293.002 393.357 293.017 393.31L296.474 382.073C296.503 381.978 296.569 381.899 296.657 381.853C296.745 381.807 296.847 381.797 296.942 381.826C297.037 381.856 297.116 381.921 297.162 382.009C297.209 382.097 297.219 382.199 297.19 382.294L293.733 393.531C293.709 393.607 293.662 393.674 293.597 393.722C293.533 393.769 293.455 393.795 293.375 393.795Z" fill="#3F005E"/>
</g>
<defs>
<linearGradient id="paint0_linear_25_39" x1="378.5" y1="354" x2="373.5" y2="-733.5" gradientUnits="userSpaceOnUse">
<stop offset="0.151042" stop-color="#3F005E"/>
<stop offset="0.338542" stop-color="#4B0C6A" stop-opacity="0.971656"/>
<stop offset="0.510417" stop-color="#5F207E" stop-opacity="0.924454"/>
<stop offset="0.697917" stop-color="#753694" stop-opacity="0.872961"/>
<stop offset="1" stop-color="#995AB7" stop-opacity="0.79"/>
</linearGradient>
<clipPath id="clip0_25_39">
<rect width="433" height="433" fill="white" transform="translate(186 108)"/>
</clipPath>
</defs>
</svg>
