<?xml version="1.0" standalone="no"?>
<svg xmlns:xlink="http://www.w3.org/1999/xlink" id="wave" style="transform:rotate(0deg); transition: 0.3s" viewBox="0 0 1440 490" version="1.1" xmlns="http://www.w3.org/2000/svg"><defs><linearGradient id="sw-gradient-0" x1="0" x2="0" y1="1" y2="0"><stop stop-color="rgba(216, 216, 217, 1)" offset="0%"/><stop stop-color="rgba(208, 164, 229, 1)" offset="100%"/></linearGradient></defs><path style="transform:translate(0, 0px); opacity:1" fill="url(#sw-gradient-0)" d="M0,49L120,49C240,49,480,49,720,40.8C960,33,1200,16,1440,24.5C1680,33,1920,65,2160,122.5C2400,180,2640,261,2880,285.8C3120,310,3360,278,3600,261.3C3840,245,4080,245,4320,269.5C4560,294,4800,343,5040,334.8C5280,327,5520,261,5760,253.2C6000,245,6240,294,6480,334.8C6720,376,6960,408,7200,351.2C7440,294,7680,147,7920,138.8C8160,131,8400,261,8640,326.7C8880,392,9120,392,9360,326.7C9600,261,9840,131,10080,138.8C10320,147,10560,294,10800,351.2C11040,408,11280,376,11520,367.5C11760,359,12000,376,12240,383.8C12480,392,12720,392,12960,326.7C13200,261,13440,131,13680,98C13920,65,14160,131,14400,147C14640,163,14880,131,15120,106.2C15360,82,15600,65,15840,106.2C16080,147,16320,245,16560,277.7C16800,310,17040,278,17160,261.3L17280,245L17280,490L17160,490C17040,490,16800,490,16560,490C16320,490,16080,490,15840,490C15600,490,15360,490,15120,490C14880,490,14640,490,14400,490C14160,490,13920,490,13680,490C13440,490,13200,490,12960,490C12720,490,12480,490,12240,490C12000,490,11760,490,11520,490C11280,490,11040,490,10800,490C10560,490,10320,490,10080,490C9840,490,9600,490,9360,490C9120,490,8880,490,8640,490C8400,490,8160,490,7920,490C7680,490,7440,490,7200,490C6960,490,6720,490,6480,490C6240,490,6000,490,5760,490C5520,490,5280,490,5040,490C4800,490,4560,490,4320,490C4080,490,3840,490,3600,490C3360,490,3120,490,2880,490C2640,490,2400,490,2160,490C1920,490,1680,490,1440,490C1200,490,960,490,720,490C480,490,240,490,120,490L0,490Z"/></svg>