<svg width="37" height="73" viewBox="0 0 37 73" fill="none" xmlns="http://www.w3.org/2000/svg">
<g clip-path="url(#clip0_779_653)">
<path d="M28.4095 72.6432C25.2804 72.2136 23.7623 65.25 23.212 61.2982C23.1826 61.0868 23.279 60.8811 23.4425 60.7653C24.6944 59.8776 26.9664 57.3884 28.7136 54.3806C30.42 51.4429 30.4937 46.7737 30.342 44.226C30.321 43.8731 30.6213 43.589 30.9373 43.6538C31.9984 43.8709 33.6887 44.0741 35.1582 44.024C35.3943 44.0159 35.6031 44.1965 35.6388 44.4534C36.3712 49.729 36.9497 60.7391 34.113 66.1867C31.1927 71.7947 29.0939 72.8276 28.4095 72.6432Z" fill="white"/>
<path d="M0.643799 55.2981C0.643799 52.0879 1.43071 46.8909 1.88074 44.3633C1.91925 44.1471 2.08444 43.9865 2.2832 43.9596C10.061 42.9065 14.0049 37.8995 15.3346 35.1277C15.5169 34.7478 16.0319 34.706 16.2248 35.0794C17.0055 36.5912 18.162 38.7761 18.9513 38.7761C19.7243 38.7761 20.8498 37.0993 21.5166 35.7702C21.7037 35.3971 22.2244 35.3687 22.4106 35.7423C22.8484 36.6217 23.337 37.6956 23.1643 37.9332C22.8579 38.3547 19.2577 41.2207 13.2063 43.3281C8.36512 45.014 5.63134 46.5313 5.23982 50.4089C4.86855 54.0861 11.5616 59.5065 14.3233 60.6325C14.5537 60.7264 14.6992 60.989 14.647 61.2532C13.1912 68.6308 10.6021 71.8863 9.25083 72.7684C9.09821 72.868 8.90507 72.8324 8.77176 72.7034C1.61953 65.7899 0.643799 59.4702 0.643799 55.2981Z" fill="white"/>
<path d="M21.2614 28.846C20.662 32.7885 19.7494 35.5318 19.2195 36.7609C19.117 36.9986 18.876 37.0535 18.7567 36.8254C18.0947 35.5607 17.1472 31.3019 16.6509 28.7872C16.6065 28.5626 16.4312 28.3992 16.2224 28.3925C12.5787 28.2746 10.4545 29.353 9.83596 29.9248L10.8481 31.5585C10.9337 31.6967 11.0759 31.7793 11.2279 31.7793H13.5676C13.799 31.7793 13.9964 31.972 14.012 32.2261C14.4323 39.0571 5.97691 42.1679 1.19178 42.6882C0.906109 42.7194 0.674861 42.4479 0.7089 42.1344C1.40512 35.7186 1.81997 33.4652 1.86952 33.4652C2.42104 29.0144 4.29519 25.429 5.16333 24.1927C10.2956 17.9548 17.113 17.0276 19.028 17.0276C20.943 17.0276 29.6755 18.8821 32.5097 24.5299C34.6882 28.8711 36.0982 37.6584 36.5905 41.9791C36.6223 42.2588 36.4311 42.5098 36.1761 42.5338C25.7596 43.5055 23.1738 36.3256 23.1557 32.1573C23.1545 31.895 23.3472 31.6871 23.5854 31.6768L26.8227 31.5372C26.9777 31.5305 27.1191 31.4383 27.1988 31.2919L27.9902 29.8405C27.36 28.8946 23.778 28.5139 21.7291 28.4225C21.4984 28.4122 21.2995 28.5953 21.2614 28.846Z" fill="white"/>
<path d="M19.1812 15.7354C18.895 10.5063 15.3328 4.72298 13.2415 2.0145C13.0388 1.75195 13.1187 1.34516 13.4096 1.21783C18.1814 -0.870922 22.5674 0.148561 24.6992 1.16404C24.9973 1.30612 25.0367 1.73782 24.7955 1.97768C20.3204 6.43031 19.1812 12.9451 19.1812 15.7354Z" fill="white"/>
</g>
<defs>
<clipPath id="clip0_779_653">
<rect width="36.0022" height="73" fill="white" transform="translate(0.643799)"/>
</clipPath>
</defs>
</svg>
